# AST/ASF file generated using VICON BodyLanguage
# -----------------------------------------------
:version 1.10
:name VICON
:units
  mass 1.0
  length 0.45
  angle deg
:documentation
   .ast/.asf automatically generated from VICON data using
   VICON BodyBuilder and BodyLanguage model FoxedUp or BRILLIANT.MOD
:root
   order TX TY TZ RX RY RZ
   axis XYZ
   position 0 0 0  
   orientation 0 0 0 
:bonedata
  begin
     id 1 
     name lhipjoint
     direction 0.822369 -0.411937 0.392449 
     length 3.8167 
     axis 0 0 0  XYZ
  end
  begin
     id 2 
     name lfemur
     direction 0.34202 -0.939693 0  
     length 6.16791  
     axis 0 0 20  XYZ
    dof rx ry rz
    limits (-160.0 20.0)
           (-70.0 70.0)
           (-60.0 70.0)
  end
  begin
     id 3 
     name ltibia
     direction 0.34202 -0.939693 0   
     length 7.07101   
     axis 0 0 20   XYZ
    dof rx
    limits (-10.0 170.0)
  end
  begin
     id 4 
     name lfoot
     direction 0.028254 -0.0776273 0.996582   
     length 1.66799   
     axis -90 7.62852e-016 20   XYZ
    dof rx rz
    limits (-45.0 90.0)
           (-70.0 20.0)
  end
  begin
     id 5 
     name ltoes
     direction 1.53483e-011 -4.21688e-011 1   
     length 0.851674   
     axis -90 7.62852e-016 20   XYZ
    dof rx
    limits (-90.0 20.0)
  end
  begin
     id 6 
     name rhipjoint
     direction -0.822466 -0.411836 0.392353   
     length 3.81764  
     axis 0 0 0  XYZ 
  end
  begin
     id 7 
     name rfemur
     direction -0.34202 -0.939693 0   
     length 6.28636   
     axis 0 0 -20   XYZ
    dof rx ry rz
    limits (-160.0 20.0)
           (-70.0 70.0)
           (-70.0 60.0)
  end
  begin
     id 8 
     name rtibia
     direction -0.34202 -0.939693 0   
     length 6.85621   
     axis 0 0 -20   XYZ
    dof rx
    limits (-10.0 170.0)
 end
 begin
     id 9 
     name rfoot
     direction -0.0553036 -0.151945 0.98684   
     length 1.57293  
     axis -90 -7.62852e-016 -20   XYZ
    dof rx rz
    limits (-45.0 90.0)
           (-20.0 70.0)
  end
  begin
     id 10 
     name rtoes
     direction -1.53592e-011 -4.21964e-011 1   
     length 0.802812   
     axis -90 -7.62852e-016 -20   XYZ
    dof rx
    limits (-90.0 20.0)
  end
  begin
     id 11 
     name lowerback
     direction 0.00654913 0.996475 -0.0836396   
     length 1.97212   
     axis 0 0 0   XYZ
    dof rx ry rz
    limits (-20.0 45.0)
           (-30.0 30.0)
           (-30.0 30.0)
  end
  begin
     id 12 
     name upperback
     direction 0.0111875 0.994527 0.103877   
     length 1.89704   
     axis 0 0 0   XYZ
    dof rx ry rz
    limits (-20.0 45.0)
           (-30.0 30.0)
           (-30.0 30.0)
  end
  begin
     id 13 
     name thorax
     direction 0.00473652 0.989004 0.147814   
     length 1.94516   
     axis 0 0 0   XYZ
    dof rx ry rz
    limits (-20.0 45.0)
           (-30.0 30.0)
           (-30.0 30.0)
  end
  begin
     id 14 
     name lowerneck
     direction -0.00925808 0.999011 0.0434791   
     length 1.81771   
     axis 0 0 0   XYZ
    dof rx ry rz
    limits (-20.0 45.0)
           (-30.0 30.0)
           (-30.0 30.0)
  end
  begin
     id 15 
     name upperneck
     direction 0.00451595 0.964412 -0.264365   
     length 1.80434   
     axis 0 0 0   XYZ
    dof rx ry rz
    limits (-20.0 45.0)
           (-30.0 30.0)
           (-30.0 30.0)
  end
  begin
     id 16
     name head
     direction -0.00110849 0.995756 -0.0920241  
     length 1.84006  
     axis 0 0 0   XYZ
    dof rx ry rz
    limits (-20.0 45.0)
           (-30.0 30.0)
           (-30.0 30.0)
  end
  begin
     id 17 
     name lclavicle
     direction 0.921253 0.385213 0.0538957  
     length 3.67415  
     axis 0 0 0   XYZ
    dof ry rz
    limits (-20.0 10.0)
           (0.0 20.0)
  end
  begin
     id 18 
     name lhumerus
     direction 1 -4.48961e-011 6.73441e-028   
     length 4.32712   
     axis 180 -30 -90   XYZ
    dof rx ry rz
    limits (-60.0 90.0)
           (-90.0 90.0)
           (-90.0 90.0)
  end
  begin
     id 19
     name lradius
     direction 1 -4.48985e-011 -9.53507e-028   
     length 3.28587   
     axis 180 -30 -90   XYZ
    dof rx
    limits (-10.0 170.0)
  end
  begin
     id 20
     name lwrist
     direction 1 -4.48951e-011 -4.67472e-027   
     length 1.64293   
     axis 1.65735e-015 90 90   XYZ
    dof ry
    limits (-180.0 0.0)
 end
  begin
     id 21 
     name lhand
     direction 1 -4.48946e-011 -9.34945e-027   
     length 0.433158   
     axis 5.96574e-015 90 90   XYZ
    dof rx rz
    limits (-90.0 90.0)
           (-45.0 45.0)
  end
  begin
     id 22 
     name lfingers
     direction 1 -4.48882e-011 -1.86989e-026   
     length 0.349224   
     axis 1.19315e-014 90 90   XYZ
    dof rx
    limits (0.0 90.0)
  end
  begin
     id 23
     name lthumb
     direction 0.707107 -6.3493e-011 0.707107   
     length 0.501417   
     axis -90 45 2.85299e-015   XYZ
    dof rx rz
    limits (-45.0 45.0)
           (-45.0 45.0)
  end
  begin
     id 24 
     name rclavicle
     direction -0.884378 0.46502 -0.0403866   
     length 3.50218  
     axis 0 0 0   XYZ 
    dof ry rz
    limits (-10.0 20.0)
           (-20.0 0.0)
  end
  begin
     id 25 
     name rhumerus
     direction -1 -4.48964e-011 1.58188e-027  
     length 4.29104   
     axis 180 30 90   XYZ
    dof rx ry rz
    limits (-90.0 60.0)
           (-90.0 90.0)
           (-90.0 90.0)
  end
  begin
     id 26 
     name rradius
     direction -1 -4.48978e-011 -1.9722e-027   
     length 3.2272   
     axis 180 30 90   XYZ
    dof rx
    limits (-10.0 170.0)
  end
  begin
     id 27 
     name rwrist
     direction -1 -4.48969e-011 -4.67472e-027   
     length 1.6136   
     axis 1.65735e-015 -90 -90   XYZ
    dof ry
    limits (-180.0 0.0)
  end
  begin
     id 28
     name rhand
     direction -1 -4.48846e-011 -9.34945e-027   
     length 0.543623   
     axis 5.96574e-015 -90 -90   XYZ
    dof rx rz
    limits (-90.0 90.0)
           (-45.0 45.0)
  end
  begin
     id 29
     name rfingers
     direction -1 -4.49074e-011 -1.86989e-026   
     length 0.438283   
     axis 1.19315e-014 -90 -90   XYZ
    dof rx
    limits (0.0 90.0)
  end
  begin
     id 30
     name rthumb
     direction -0.707107 -6.34834e-011 0.707107   
     length 0.629289   
     axis -90 -45 -2.85299e-015   XYZ
    dof rx rz
    limits (-45.0 45.0)
           (-45.0 45.0)
  end
:hierarchy
  begin
    root lhipjoint rhipjoint lowerback
    lhipjoint lfemur
    lfemur ltibia
    ltibia lfoot
    lfoot ltoes
    rhipjoint rfemur
    rfemur rtibia
    rtibia rfoot
    rfoot rtoes
    lowerback upperback
    upperback thorax
    thorax lowerneck lclavicle rclavicle
    lowerneck upperneck
    upperneck head
    lclavicle lhumerus
    lhumerus lradius
    lradius lwrist
    lwrist lhand lthumb
    lhand lfingers
    rclavicle rhumerus
    rhumerus rradius
    rradius rwrist
    rwrist rhand rthumb
    rhand rfingers
  end

#!OML:ASF H:\GeneralSubjects\Female5\Project 1\Capture day 1\Session 1\Female5.ASF
:FULLY-SPECIFIED
:DEGREES
73
root -33.8274 15.9203 -11.2912 -160.427 78.3048 -171.291
lowerback 18.477 3.5575 11.7429
upperback -13.8628 8.4689 -4.44417
thorax -24.943 0.829505 -15.6281
lowerneck -9.65635 -8.9061 -2.04388
upperneck 44.2215 -11.6988 3.77098
head 18.8401 -3.30431 0.487326
rclavicle -6.38099e-014 -2.78299e-014
rhumerus -63.1075 1.67396 -86.3224
rradius 39.204
rwrist -7.42575
rhand -24.964 -17.8158
rfingers 7.12502
rthumb 1.54638 -47.7899
lclavicle -6.38099e-014 -2.78299e-014
lhumerus -56.8868 -17.1714 73.1243
lradius 33.9021
lwrist -3.24593
lhand -25.175 26.0401
lfingers 7.12502
lthumb 1.34257 56.0156
rfemur 3.88004 14.9673 40.09
rtibia -4.83645
rfoot -15.8902 -12.9708
rtoes -15.7085
lfemur -38.6378 -17.7292 -14.6285
ltibia 18.7181
lfoot -26.2065 1.41498
ltoes -38.7674
74
root -33.6735 15.8866 -11.3696 -157.499 79.0178 -168.427
lowerback 18.5691 3.55628 12.2404
upperback -13.9889 8.66144 -4.45035
thorax -25.0566 0.788221 -16.0261
lowerneck -9.49434 -8.87113 -1.83911
upperneck 44.2404 -11.646 3.6218
head 18.7652 -3.27957 0.396907
rclavicle 5.76476e-014 -1.90833e-014
rhumerus -63.2764 1.66189 -86.5734
rradius 39.0532
rwrist -7.17876
rhand -23.3337 -18.5947
rfingers 7.12502
rthumb 3.12085 -48.5516
lclavicle 5.76476e-014 -1.90833e-014
lhumerus -57.0218 -17.7886 73.2805
lradius 33.865
lwrist -3.01529
lhand -25.2769 26.1198
lfingers 7.12502
lthumb 1.24415 56.096
rfemur 4.53161 15.4349 40.5766
rtibia -4.87571
rfoot -15.7132 -12.7005
rtoes -15.2961
lfemur -39.5504 -20.2757 -12.1778
ltibia 14.9076
lfoot -27.5231 3.70239
ltoes -43.42
75
root -33.5078 15.8453 -11.4413 -153.531 79.6203 -164.436
lowerback 18.7364 3.53306 12.7889
upperback -14.1175 8.86243 -4.40961
thorax -25.2232 0.735379 -16.4103
lowerneck -9.32752 -8.83636 -1.64373
upperneck 44.2535 -11.6208 3.54631
head 18.6978 -3.25654 0.338752
rclavicle -6.97734e-014 3.18055e-015
rhumerus -63.4827 1.62568 -86.8191
rradius 38.8385
rwrist -6.7172
rhand -21.5417 -19.3334
rfingers 7.12502
rthumb 4.85127 -49.2579
lclavicle -6.97734e-014 3.18055e-015
lhumerus -57.2275 -18.4763 73.4708
lradius 33.9139
lwrist -2.73535
lhand -25.4895 26.4856
lfingers 7.12502
lthumb 1.03877 56.4628
rfemur 5.22726 15.932 41.2837
rtibia -4.7985
rfoot -15.5205 -12.3656
rtoes -14.6754
lfemur -40.4938 -22.7614 -9.33151
ltibia 11.7024
lfoot -28.8814 5.92528
ltoes -48.6582
76
root -33.3316 15.7977 -11.5136 -149.115 80.207 -159.98
lowerback 18.8246 3.53891 13.2349
upperback -14.2086 9.05919 -4.33557
thorax -25.293 0.7238 -16.6643
lowerneck -9.285 -8.80735 -1.5757
upperneck 44.3645 -11.6094 3.55433
head 18.7522 -3.23767 0.335445
rclavicle -9.99887e-014 -4.77083e-014
rhumerus -63.6689 1.57618 -86.931
rradius 38.7217
rwrist -6.22538
rhand -23.4869 -18.0645
rfingers 7.12502
rthumb 2.97286 -48.0235
lclavicle -9.99887e-014 -4.77083e-014
lhumerus -57.0902 -18.5836 73.2711
lradius 33.7021
lwrist -3.08925
lhand -25.7047 26.6299
lfingers 7.12502
lthumb 0.830933 56.6081
rfemur 5.98663 16.3112 41.9553
rtibia -4.75276
rfoot -15.1451 -12.082
rtoes -14.4357
lfemur -41.5666 -26.0654 -5.61203
ltibia 8.59818
lfoot -32.4939 5.78867
ltoes -49.052
77
root -33.1486 15.7479 -11.5941 -144.892 80.7921 -155.718
lowerback 18.8466 3.57917 13.5539
upperback -14.2679 9.24334 -4.27639
thorax -25.2843 0.745156 -16.8384
lowerneck -9.28401 -8.78231 -1.47554
upperneck 44.4548 -11.5996 3.51703
head 18.7959 -3.22198 0.302155
rclavicle 4.85035e-014 1.59028e-015
rhumerus -63.8318 1.4833 -86.9327
rradius 38.6216
rwrist -5.87266
rhand -26.2945 -16.6315
rfingers 7.12502
rthumb 0.261315 -46.611
lclavicle 4.85035e-014 1.59028e-015
lhumerus -56.816 -18.4382 72.9498
lradius 33.4197
lwrist -3.54722
lhand -25.5735 26.3239
lfingers 7.12502
lthumb 0.9577 56.3015
rfemur 6.75841 16.2216 42.3665
rtibia -4.69502
rfoot -14.6749 -11.4233
rtoes -13.8911
lfemur -43.4512 -31.1472 -0.118179
ltibia 6.26631
lfoot -36.6937 8.67019
ltoes -52.1966
78
root -32.9534 15.6964 -11.6785 -140.926 81.3499 -151.673
lowerback 18.9186 3.62196 13.7955
upperback -14.3459 9.40901 -4.275
thorax -25.3502 0.749149 -17.0543
lowerneck -9.22352 -8.76901 -1.4342
upperneck 44.5194 -11.6731 3.69126
head 18.8443 -3.2187 0.368369
rclavicle 1.19271e-014 -3.89618e-014
rhumerus -64.0469 1.27612 -86.8844
rradius 38.4286
rwrist -5.63495
rhand -26.9215 -16.7316
rfingers 7.12502
rthumb -0.344265 -46.7111
lclavicle 1.19271e-014 -3.89618e-014
lhumerus -56.6956 -18.479 72.7373
lradius 33.2069
lwrist -3.67285
lhand -25.4683 25.9172
lfingers 7.12502
lthumb 1.05927 55.8943
rfemur 7.69466 15.724 42.577
rtibia -4.77572
rfoot -14.3457 -10.2353
rtoes -12.1257
lfemur -44.5635 -33.1442 2.25517
ltibia 5.27876
lfoot -40.0956 7.74573
ltoes -50.4386
79
root -32.7469 15.6436 -11.7609 -136.195 81.8192 -146.876
lowerback 18.9478 3.67584 14.0458
upperback -14.4361 9.58916 -4.27823
thorax -25.394 0.761 -17.2794
lowerneck -9.23861 -8.80289 -1.45232
upperneck 44.6564 -11.8399 3.93605
head 18.9826 -3.24404 0.460165
rclavicle -9.10434e-014 1.90833e-014
rhumerus -64.2227 0.963338 -86.7102
rradius 38.0812
rwrist -5.34919
rhand -26.7149 -17.1309
rfingers 7.12502
rthumb -0.144696 -47.1106
lclavicle -9.10434e-014 1.90833e-014
lhumerus -56.6198 -18.6164 72.6102
lradius 33.0554
lwrist -3.57601
lhand -25.7772 26.4094
lfingers 7.12502
lthumb 0.760898 56.3878
rfemur 8.65634 15.3518 42.8481
rtibia -4.80002
rfoot -14.3172 -9.16046
rtoes -11.608
lfemur -45.2532 -33.9469 3.57107
ltibia 5.19246
lfoot -40.5981 10.8362
ltoes -51.1204
80
root -32.5365 15.5966 -11.843 -130.728 82.2359 -141.441
lowerback 18.8649 3.75516 14.2587
upperback -14.5275 9.77354 -4.28523
thorax -25.3592 0.798657 -17.465
lowerneck -9.28138 -8.83362 -1.32584
upperneck 44.7494 -11.9662 3.97943
head 19.057 -3.26376 0.434785
rclavicle -6.10269e-014 -1.35174e-014
rhumerus -64.3056 0.661825 -86.5246
rradius 37.6102
rwrist -5.1469
rhand -26.335 -17.4253
rfingers 7.12502
rthumb 0.222176 -47.4049
lclavicle -6.10269e-014 -1.35174e-014
lhumerus -56.4371 -18.5279 72.3663
lradius 32.9107
lwrist -3.50673
lhand -26.0428 27.207
lfingers 7.12502
lthumb 0.50439 57.1861
rfemur 9.23679 14.9687 43.0245
rtibia -4.27458
rfoot -14.5643 -7.85902
rtoes -11.0874
lfemur -45.0041 -32.484 2.46795
ltibia 5.62276
lfoot -40.8796 3.57082
ltoes -43.4746
81
root -32.3143 15.5558 -11.9259 -124.956 82.5871 -135.726
lowerback 18.7377 3.84405 14.4234
upperback -14.6485 9.95307 -4.30901
thorax -25.3437 0.837882 -17.6424
lowerneck -9.23312 -8.83933 -1.01918
upperneck 44.7507 -12.0376 3.87976
head 19.0042 -3.26157 0.322283
rclavicle -1.90833e-014 1.90833e-014
rhumerus -64.5399 0.383733 -86.3948
rradius 37.2952
rwrist -5.21767
rhand -25.8144 -17.7374
rfingers 7.12502
rthumb 0.725029 -47.7159
lclavicle -1.90833e-014 1.90833e-014
lhumerus -56.286 -18.3739 72.0567
lradius 32.7638
lwrist -3.39539
lhand -26.0741 26.9788
lfingers 7.12502
lthumb 0.474171 56.958
rfemur 9.67769 14.3113 43.0504
rtibia -3.56354
rfoot -14.6157 -6.27701
rtoes -9.78432
lfemur -44.0475 -29.4421 -0.518864
ltibia 7.37664
lfoot -36.5615 7.9301
ltoes -43.4513
82
root -32.0757 15.5161 -12.0035 -118.443 82.7412 -129.233
lowerback 18.5593 3.94715 14.591
upperback -14.7767 10.1598 -4.26498
thorax -25.3001 0.906011 -17.7284
lowerneck -9.15173 -8.8459 -0.83119
upperneck 44.7529 -12.1334 3.93225
head 18.9769 -3.26529 0.301383
rclavicle -3.35946e-014 1.98785e-014
rhumerus -64.8325 0.136667 -86.1949
rradius 37.0084
rwrist -5.2919
rhand -25.5453 -17.8399
rfingers 7.12502
rthumb 0.98492 -47.8174
lclavicle -3.35946e-014 1.98785e-014
lhumerus -56.2365 -18.375 72.0186
lradius 32.6827
lwrist -3.13048
lhand -26.019 26.6882
lfingers 7.12502
lthumb 0.527418 56.6673
rfemur 10.2699 14.1282 43.3519
rtibia -2.92209
rfoot -14.5263 -5.52523
rtoes -9.80419
lfemur -43.3418 -26.779 -2.87854
ltibia 9.59344
lfoot -32.8766 9.13466
ltoes -43.0601
